<svg stroke="currentColor" fill="currentColor" stroke-width="0" viewBox="0 0 448 512" height="1em" width="1em" xmlns="http://www.w3.org/2000/svg"><path d="M400 32H48C22 32 0 54 0 80v352c0 27 22 48 48 48h352c27 0 48-21 48-48V80c0-26-21-48-48-48zM277 416c-8 1-11-4-11-8v-56c0-15-5-25-11-30 37-4 76-10 76-73 0-19-7-28-17-39 1-5 7-22-2-45-14-5-46 17-46 17a156 156 0 0 0-83 1s-32-23-46-18c-9 22-3 40-1 45a50 50 0 0 0-16 39c0 63 37 69 74 73-4 4-9 11-10 22-10 4-34 12-49-14-9-16-25-17-25-17-16 0-1 10-1 10 11 5 18 24 18 24 10 30 56 20 56 20l1 41c0 4-3 9-12 8-66-22-112-85-112-159 0-91 70-161 162-161s166 70 166 161c0 74-45 137-111 159zm-98-61-4-2c0-2 1-3 3-3 2-1 4 0 4 2 1 1-1 2-3 3zm-9-1-4 2c-2 0-3-1-3-2 0-2 1-3 3-3s4 1 4 3zm-14-1-4 1-3-3c1-2 3-2 4-2 2 1 4 2 3 4zm-12-6h-5v-5l4 1c1 1 2 3 1 4zm-9-9c-1 1-3 0-4-1s-1-4 0-4c1-1 3-1 4 1v4zm-7-10h-3c-1-2-2-3-1-4s3 0 4 1v3zm-7-7h-2c-2 0-2-1-2-2l3-1c1 1 2 2 1 3z" stroke="none"/></svg>