<svg width="470" height="380" viewBox="0 0 470 380" fill="none" xmlns="http://www.w3.org/2000/svg">
<g filter="url(#filter0_i)">
<path d="M234.854 364.44C364.56 364.44 469.708 282.857 469.708 182.22C469.708 81.5826 364.56 0 234.854 0C105.148 0 0 81.5826 0 182.22C0 282.857 105.148 364.44 234.854 364.44Z" fill="#F9813A"/>
</g>
<mask id="mask0" mask-type="alpha" maskUnits="userSpaceOnUse" x="0" y="0" width="470" height="365">
<path d="M234.854 364.44C364.56 364.44 469.708 282.857 469.708 182.22C469.708 81.5826 364.56 0 234.854 0C105.148 0 0 81.5826 0 182.22C0 282.857 105.148 364.44 234.854 364.44Z" fill="#F9813A"/>
</mask>
<g mask="url(#mask0)">
<path d="M243.691 252.266L243.661 252.326L243.648 252.392C240.623 267.236 240.304 281.678 240.008 295.061C239.985 296.093 239.963 297.12 239.939 298.139C239.606 312.401 239.059 325.337 234.995 336.275C230.945 347.172 223.394 356.109 208.971 362.336C194.519 368.576 173.161 372.097 141.514 372.097C127.545 372.097 116.814 366.412 108.8 357.212C100.773 347.997 95.4629 335.242 92.407 321.114C86.2936 292.85 89.2386 259.269 97.2822 238.056C110.033 204.428 130.501 189.259 153.434 186.201C176.417 183.136 201.996 192.216 224.95 207.357C227.567 209.083 229.993 210.632 232.226 212.059C235.288 214.014 237.988 215.739 240.326 217.373C244.363 220.195 247.215 222.682 248.868 225.494C250.505 228.279 250.995 231.433 250.186 235.661C249.373 239.91 247.254 245.217 243.691 252.266Z" fill="#4F5353" stroke="#71CA9B"/>
<path d="M103.6 237.878C129.204 170.351 186.002 176.59 232.011 206.939C256.724 223.241 265.191 224.257 250.923 252.492C237.934 316.237 274.988 372.597 148.299 372.597C91.8023 372.597 87.4405 280.496 103.6 237.878Z" fill="#7D7D7D"/>
<path opacity="0.4" d="M121.201 237.878C146.805 170.351 203.603 176.59 249.612 206.939C274.325 223.241 282.792 224.257 268.524 252.492C255.536 316.237 292.589 372.597 165.901 372.597C109.404 372.597 105.042 280.496 121.201 237.878Z" fill="#B3B3B3"/>
<path d="M246.086 252.215L246.072 252.259L246.066 252.305C244.101 267.148 243.894 281.59 243.701 294.988C243.686 296.021 243.672 297.048 243.656 298.068C243.44 312.34 243.084 325.318 240.435 336.295C237.79 347.252 232.87 356.171 223.547 362.368C214.206 368.576 200.38 372.096 179.833 372.096C170.901 372.096 163.972 366.505 158.751 357.278C153.528 348.047 150.069 335.261 148.079 321.098C144.1 292.775 146.016 259.126 151.254 237.862C159.567 204.109 172.888 189.036 187.641 186.007C202.432 182.97 218.977 191.961 233.908 207.123C235.614 208.856 237.192 210.407 238.644 211.835C240.633 213.79 242.384 215.512 243.903 217.147C246.518 219.961 248.372 222.446 249.451 225.27C251.606 230.913 250.728 238.073 246.086 252.215Z" fill="#ECF9F8" stroke="#71CA9B"/>
<path opacity="0.4" d="M185.5 300.999C207.1 309.799 243.5 306.332 259 303.499L162.5 334.999L152.5 281.499C154.5 284.332 163.9 292.199 185.5 300.999Z" fill="black"/>
<path opacity="0.2" d="M145.349 227.282C162.436 173.073 200.339 178.081 231.043 202.445C247.534 215.532 253.185 216.347 243.663 239.014C234.996 290.188 259.723 335.432 175.179 335.432C137.476 335.432 134.566 261.495 145.349 227.282Z" fill="#87D4FF"/>
<path opacity="0.3" d="M118.588 248.533C156.159 261.99 195.02 273.407 212.159 269.536C176.182 254.361 100.059 230.049 100.059 230.049C100.059 230.049 91.2578 256.431 91.2578 266.651C91.2578 266.651 99.1326 241.565 118.588 248.533Z" fill="black"/>
<path d="M278.86 268.538L52.3438 345.653L252.919 398.611L537.338 243.452L234.39 200.714L106.541 232.303L278.86 268.538Z" fill="#5B5B5B" stroke="black"/>
<path opacity="0.2" d="M106.543 232.303L246.9 257.853L302.95 240.665L417.366 276.9L446.549 293.159L537.34 243.452L234.393 200.714L106.543 232.303Z" fill="black" stroke="black"/>
<path opacity="0.4" d="M233.003 287.584L327.963 303.843L217.716 392.107L41.6914 345.652L233.003 287.584Z" fill="black"/>
<path opacity="0.15" d="M233.465 301.521L222.348 293.159L241.803 287.12L255.7 293.159L233.465 301.521Z" fill="#87D4FF"/>
<g filter="url(#filter1_i)">
<path d="M247.657 336.233C246.585 336.66 245.38 336.603 244.353 336.074L206.764 316.735C203.642 315.129 203.948 310.563 207.255 309.396L284.067 282.304C285.093 281.942 286.223 282.015 287.194 282.507L321.214 299.71C324.289 301.265 324.097 305.728 320.899 307.005L247.657 336.233Z" fill="#555555"/>
</g>
<path d="M244.581 335.629C245.479 336.091 246.533 336.142 247.471 335.768L320.714 306.54C323.512 305.423 323.68 301.517 320.989 300.156L286.97 282.954C286.119 282.523 285.131 282.459 284.234 282.776L207.421 309.868C204.528 310.889 204.26 314.885 206.992 316.29L244.581 335.629Z" stroke="black"/>
<path opacity="0.1" d="M264.137 328.807C263.181 329.237 262.096 329.274 261.113 328.909L217.365 312.678C213.839 311.369 213.896 306.352 217.451 305.134L283.848 282.368C285.001 281.973 286.272 282.127 287.3 282.787L313.658 299.727C316.332 301.445 316.039 305.448 313.145 306.75L264.137 328.807Z" fill="#87D4FF"/>
<path opacity="0.4" d="M416.902 277.364L302.023 241.594L238.098 261.105L284.42 268.538L327.963 303.843L207.988 392.107L251.994 398.146L446.548 294.552L416.902 277.364Z" fill="url(#paint0_linear)"/>
<path fill-rule="evenodd" clip-rule="evenodd" d="M240.227 281.305C242.7 282.088 244.006 283.868 245.464 285.857C248.65 290.202 252.567 295.543 270.989 293.667C270.989 295.99 298.782 297.848 298.782 287.794C297.302 265.494 270.062 269.147 270.062 269.147L241.805 255.997C241.805 255.997 241.687 254.247 241.285 251.442C240.804 258.244 240.652 264.879 240.506 271.276C240.427 274.691 240.351 278.037 240.227 281.305Z" fill="#ECF9F8"/>
<path d="M240.227 281.305L239.727 281.286L239.712 281.667L240.076 281.782L240.227 281.305ZM245.464 285.857L245.061 286.153L245.464 285.857ZM270.989 293.667H271.489V293.114L270.938 293.17L270.989 293.667ZM298.782 287.794H299.282V287.777L299.281 287.761L298.782 287.794ZM270.062 269.147L269.851 269.6L269.984 269.662L270.128 269.642L270.062 269.147ZM241.805 255.997L241.306 256.031L241.326 256.326L241.594 256.451L241.805 255.997ZM241.285 251.442L241.78 251.371L241.115 246.742L240.786 251.407L241.285 251.442ZM240.506 271.276L240.006 271.264L240.506 271.276ZM240.076 281.782C242.373 282.509 243.591 284.148 245.061 286.153L245.867 285.562C244.42 283.588 243.028 281.668 240.377 280.829L240.076 281.782ZM245.061 286.153C246.659 288.332 248.5 290.85 252.309 292.551C256.101 294.245 261.786 295.107 271.039 294.165L270.938 293.17C261.769 294.103 256.284 293.232 252.717 291.638C249.166 290.052 247.456 287.727 245.867 285.562L245.061 286.153ZM270.489 293.667C270.489 294.074 270.784 294.348 271.019 294.508C271.278 294.684 271.626 294.835 272.025 294.968C272.828 295.236 273.949 295.465 275.266 295.639C277.906 295.987 281.414 296.124 284.921 295.871C288.421 295.618 291.964 294.974 294.649 293.734C297.33 292.495 299.282 290.594 299.282 287.794H298.282C298.282 290.021 296.759 291.658 294.229 292.826C291.703 293.993 288.298 294.624 284.849 294.873C281.408 295.122 277.968 294.987 275.397 294.647C274.108 294.477 273.058 294.259 272.341 294.02C271.979 293.899 271.73 293.782 271.582 293.681C271.41 293.564 271.489 293.551 271.489 293.667H270.489ZM299.281 287.761C298.903 282.075 296.878 278.006 294.025 275.121C291.182 272.245 287.548 270.577 283.996 269.625C280.443 268.673 276.946 268.43 274.343 268.424C273.039 268.421 271.956 268.477 271.198 268.535C270.818 268.563 270.52 268.592 270.315 268.614C270.213 268.625 270.134 268.634 270.08 268.64C270.053 268.644 270.033 268.646 270.019 268.648C270.011 268.649 270.006 268.65 270.002 268.65C270 268.65 269.999 268.651 269.998 268.651C269.997 268.651 269.997 268.651 269.996 268.651C269.996 268.651 269.996 268.651 270.062 269.147C270.128 269.642 270.128 269.642 270.128 269.642C270.129 269.642 270.129 269.642 270.129 269.642C270.13 269.642 270.13 269.642 270.132 269.642C270.135 269.641 270.139 269.641 270.145 269.64C270.157 269.638 270.175 269.636 270.2 269.633C270.25 269.627 270.324 269.619 270.421 269.608C270.616 269.587 270.905 269.559 271.273 269.532C272.01 269.476 273.067 269.421 274.34 269.424C276.89 269.43 280.295 269.669 283.737 270.591C287.18 271.514 290.634 273.113 293.314 275.824C295.986 278.526 297.92 282.363 298.283 287.827L299.281 287.761ZM270.273 268.693L242.016 255.544L241.594 256.451L269.851 269.6L270.273 268.693ZM241.805 255.997C242.304 255.964 242.304 255.964 242.304 255.964C242.304 255.964 242.304 255.964 242.304 255.964C242.304 255.963 242.304 255.963 242.304 255.963C242.304 255.963 242.304 255.963 242.304 255.962C242.304 255.961 242.304 255.96 242.303 255.958C242.303 255.954 242.303 255.949 242.302 255.942C242.301 255.927 242.3 255.907 242.298 255.879C242.294 255.825 242.287 255.744 242.279 255.639C242.261 255.428 242.233 255.118 242.193 254.721C242.113 253.927 241.982 252.781 241.78 251.371L240.79 251.513C240.99 252.908 241.119 254.04 241.198 254.822C241.238 255.213 241.265 255.517 241.282 255.722C241.291 255.824 241.297 255.902 241.301 255.954C241.303 255.98 241.304 256 241.305 256.013C241.305 256.019 241.306 256.024 241.306 256.027C241.306 256.028 241.306 256.029 241.306 256.03C241.306 256.031 241.306 256.031 241.306 256.031C241.306 256.031 241.306 256.031 241.306 256.031C241.306 256.031 241.306 256.031 241.306 256.031C241.306 256.031 241.306 256.031 241.805 255.997ZM240.786 251.407C240.304 258.223 240.152 264.869 240.006 271.264L241.006 271.287C241.152 264.889 241.304 258.266 241.783 251.477L240.786 251.407ZM240.006 271.264C239.928 274.68 239.851 278.023 239.727 281.286L240.726 281.324C240.851 278.052 240.927 274.701 241.006 271.287L240.006 271.264Z" fill="#71CA9B"/>
<path opacity="0.4" fill-rule="evenodd" clip-rule="evenodd" d="M240.172 282.067C242.65 283.007 244.089 284.887 245.627 286.898C249.121 291.464 253.128 296.702 270.987 293.11C270.987 295.433 298.78 297.291 298.78 287.237C297.3 264.938 270.06 268.59 270.06 268.59L241.803 255.441C241.803 255.441 241.685 253.691 241.283 250.885C240.802 257.687 240.65 264.323 240.504 270.719C240.415 274.595 240.329 278.383 240.172 282.067Z" fill="black"/>
<path opacity="0.5" d="M242.856 266.339C243.533 273.125 247.087 284.434 248.779 289.241V291.786C247.651 290.089 245.056 286.357 243.702 285C242.348 283.643 239.753 282.738 238.625 282.455L240.317 244.286C240.599 248.809 242.179 259.554 242.856 266.339Z" fill="black"/>
<path opacity="0.5" d="M245.974 256.924C245.974 256.924 232.244 254.905 242.268 259.247C249.439 262.352 262.187 266.68 269.135 272.255C271.883 272.572 290.907 267.609 270.062 268.538L245.974 256.924Z" fill="#87D4FF"/>
<g filter="url(#filter2_i)">
<path d="M340.51 231.689L432.928 257.773L408.299 273.065L310.629 242.856L340.51 231.689Z" fill="#565656"/>
</g>
<path d="M312.177 242.811L340.532 232.214L431.701 257.946L408.229 272.52L312.177 242.811Z" stroke="#444444"/>
<path opacity="0.4" d="M339.544 231.838L432.189 257.853L396.984 255.995L352.515 243.917L313.141 242.058L339.544 231.838Z" fill="black"/>
<g filter="url(#filter3_i)">
<path d="M351.645 189.175L397.086 200.754V256.596L351.645 243.653V189.175Z" fill="#565656"/>
</g>
<path d="M352.145 243.276V189.818L396.586 201.143V255.934L352.145 243.276Z" stroke="#444444"/>
<path opacity="0.5" d="M352.051 188.636L397.447 198.529V246.24L352.051 235.181V188.636Z" fill="black"/>
<g filter="url(#filter4_i)">
<path d="M296.465 112.45L451.181 149.514V258.909C390.761 241.871 356.885 232.319 296.465 215.281V112.45Z" fill="#565656"/>
</g>
<path d="M296.965 214.903V113.084L450.681 149.908V258.248L296.965 214.903Z" stroke="#444444"/>
<g filter="url(#filter5_i)">
<path d="M303.113 126.711L439.281 159.551V247.441L303.113 210.821V126.711Z" fill="#272A33"/>
</g>
<path d="M340.934 136.606L349.272 138.719V142.181L340.934 140.091V136.606Z" fill="#BD6938"/>
<path d="M340.934 163.55L349.272 165.662V169.124L340.934 167.035V163.55Z" fill="#BD6938"/>
<path opacity="0.7" d="M349.273 147.755L385.405 157.301V160.763L349.273 151.24V147.755Z" fill="white"/>
<path opacity="0.7" d="M349.273 157.046L385.405 166.592V170.054L349.273 160.531V157.046Z" fill="white"/>
<path opacity="0.7" d="M340.934 174.699L358.536 178.67V182.132L340.934 178.184V174.699Z" fill="#FFF72B"/>
<path d="M340.934 183.061L353.904 186.103V189.565L340.934 186.546V183.061Z" fill="#FFF72B"/>
<path opacity="0.7" d="M359.465 187.707L395.596 197.252V200.714L359.465 191.191V187.707Z" fill="white"/>
<path opacity="0.7" d="M340.934 192.352L386.329 204.685V208.147L340.934 195.837V192.352Z" fill="white"/>
<path opacity="0.7" d="M340.934 200.714L367.801 208.401V211.863L340.934 204.199V200.714Z" fill="white"/>
<path d="M377.992 210.934L395.595 215.833V219.295L377.992 214.418V210.934Z" fill="#BD6938"/>
<path opacity="0.7" d="M340.934 209.076L414.123 229.77V233.232L340.934 212.56V209.076Z" fill="white"/>
<path opacity="0.2" d="M306.656 127.315L439.138 159.159V244.381L306.656 207.915V127.315Z" fill="#6E9CB6"/>
<path d="M318.305 145.542C318.506 145.697 318.584 145.909 318.542 146.178C318.505 146.408 318.388 146.604 318.189 146.767C317.999 146.931 317.82 147 317.651 146.973C317.551 146.957 317.442 146.909 317.322 146.829C317.203 146.738 317.081 146.642 316.954 146.54L314.467 144.105C314.359 144.017 314.284 143.907 314.244 143.778C314.204 143.639 314.196 143.499 314.218 143.36C314.242 143.21 314.293 143.08 314.371 142.97C314.45 142.86 314.555 142.779 314.685 142.728L318.066 140.878C318.382 140.754 318.624 140.706 318.793 140.733C318.992 140.764 319.16 140.893 319.298 141.12C319.447 141.338 318.579 140.623 318.546 140.832C318.509 141.062 319.298 142.153 319.059 142.248L316.636 143.744L318.305 145.542Z" fill="#FFF72B"/>
<path d="M320.667 151.382C320.478 151.351 320.311 151.248 320.165 151.072C320.018 150.905 319.961 150.717 319.994 150.507C320.013 150.387 320.062 150.272 320.14 150.162L325.465 138.685C325.556 138.556 325.663 138.46 325.785 138.398C325.918 138.337 326.053 138.318 326.193 138.34C326.382 138.37 326.544 138.473 326.68 138.648C326.827 138.814 326.884 139.002 326.851 139.212C326.832 139.332 326.783 139.447 326.704 139.557L321.395 151.037C321.303 151.165 321.191 151.26 321.059 151.321C320.937 151.383 320.806 151.404 320.667 151.382Z" fill="#FFF72B"/>
<path d="M332.996 147.811C333.104 147.9 333.178 148.014 333.217 148.153C333.258 148.282 333.267 148.417 333.245 148.556C333.221 148.706 333.17 148.836 333.092 148.946C333.013 149.057 332.908 149.137 332.778 149.188L329.298 151.217C328.983 151.34 328.741 151.389 328.571 151.362C328.372 151.33 328.198 151.205 328.049 150.987C327.912 150.761 327.859 150.543 327.892 150.333C327.929 150.104 328.067 149.941 328.306 149.846L330.827 148.172L327.245 145.178C327.045 145.023 326.966 144.811 327.008 144.542C327.045 144.312 327.157 144.115 327.347 143.951C327.546 143.788 327.73 143.72 327.899 143.747C327.999 143.763 328.108 143.816 328.226 143.907C328.346 143.987 328.469 144.078 328.596 144.18L332.996 147.811Z" fill="#FFF72B"/>
<path d="M207.014 109.231L281.125 169.613L294.983 92.1228C295.482 89.3985 292.778 86.9633 290.061 87.6693L207.014 109.231Z" fill="white" stroke="#71CA9B" stroke-miterlimit="10"/>
<path opacity="0.1" d="M207.014 109.23L281.125 169.613L294.983 92.1224C295.482 89.398 292.778 86.9628 290.061 87.6688L207.014 109.23Z" fill="black" stroke="#71CA9B" stroke-miterlimit="10"/>
<path opacity="0.6" d="M281.133 169.612L294.988 92.1381C295.487 89.4144 295.028 88.0528 292.312 88.7586L279.774 164.944L281.133 169.612Z" fill="#87D4FF"/>
<path d="M283.098 98.1594L248.55 119.402L279.57 148.191L288.463 102.991C289.308 99.8665 286.215 97.0373 283.098 98.1594Z" fill="#323232"/>
<path d="M288.632 183.008C282.779 225.209 255.618 279.773 179.056 268.995C99.0555 257.735 71.0283 206.341 90.2515 152.4C106.588 106.56 157.052 92.6814 203.05 100.063C248.937 107.427 294.485 140.807 288.632 183.008Z" fill="#E5E5E5" stroke="#71CA9B" stroke-miterlimit="10"/>
<path opacity="0.2" fill-rule="evenodd" clip-rule="evenodd" d="M278.144 142.776C267.267 137.17 255.126 133.236 242.869 131.253C201.312 124.529 161.794 143.106 146.654 187.254C136.074 218.106 138.087 245.311 156.61 264.452C93.9198 247.433 72.9471 200.948 90.2483 152.401C106.585 106.56 157.048 92.6817 203.047 100.064C232.918 104.857 262.646 120.676 278.144 142.776Z" fill="black"/>
<path opacity="0.4" fill-rule="evenodd" clip-rule="evenodd" d="M261.686 125.467C253.426 122.453 244.785 120.207 236.097 118.809C190.101 111.41 146.522 130.857 130.063 177.578C118.563 210.224 120.961 239.085 141.558 259.503C90.6378 239.533 74.4144 196.83 90.2483 152.401C106.585 106.56 157.048 92.6817 203.047 100.064C224.376 103.486 245.631 112.53 261.686 125.467Z" fill="black"/>
<path opacity="0.3" fill-rule="evenodd" clip-rule="evenodd" d="M96.1619 224.801C89.4155 207.131 90.7609 186.038 98.7691 163.09C115.329 115.637 159.94 91.9032 205.671 100.808C222.17 104.02 237.982 109.941 251.359 118.116C237.038 109.105 220.066 102.795 203.047 100.064C157.048 92.6817 106.585 106.56 90.2483 152.401C80.9247 178.562 82.7163 204.125 96.1619 224.801Z" fill="black"/>
<path d="M161.681 251.792C135.37 228.605 135.23 189.947 164.636 161.893C199.501 142.177 272.841 142.645 288.59 168.194C291.08 183.383 286.606 202.704 278.325 219.76C268.117 240.788 251.159 258.373 222.716 260.529C225.993 260.28 179.317 267.333 161.681 251.792Z" fill="#484848"/>
<path opacity="0.1" d="M188.329 250.685C168.601 232.845 168.424 203.182 190.371 181.711C216.418 166.647 271.285 167.144 283.115 186.779C285.006 198.437 281.695 213.254 275.532 226.326C267.934 242.442 255.281 255.903 234.006 257.504C236.457 257.32 201.551 262.644 188.329 250.685Z" fill="#87D4FF"/>
<path d="M218.314 206.529C222.224 196.305 219.586 185.779 212.422 183.019C205.257 180.258 196.279 186.31 192.369 196.534C188.459 206.759 191.097 217.285 198.262 220.045C205.426 222.805 214.404 216.754 218.314 206.529Z" fill="#71CA9B"/>
<g filter="url(#filter6_f)">
<path d="M218.314 206.529C222.224 196.305 219.586 185.779 212.422 183.019C205.257 180.258 196.279 186.31 192.369 196.534C188.459 206.759 191.097 217.285 198.262 220.045C205.426 222.805 214.404 216.754 218.314 206.529Z" fill="#71CA9B"/>
</g>
<path d="M253.604 200.907C256.53 191.051 263.601 184.46 269.398 186.188C275.194 187.915 277.521 197.306 274.595 207.162C271.669 217.019 264.598 223.61 258.801 221.882C253.004 220.155 250.677 210.764 253.604 200.907Z" fill="#71CA9B"/>
<g filter="url(#filter7_f)">
<path d="M253.604 200.907C256.53 191.051 263.601 184.46 269.398 186.188C275.194 187.915 277.521 197.306 274.595 207.162C271.669 217.019 264.598 223.61 258.801 221.882C253.004 220.155 250.677 210.764 253.604 200.907Z" fill="#71CA9B"/>
</g>
<path d="M199.142 120.553C199.142 120.553 169.531 127.13 155.748 138.544C140.84 141.25 132.019 110.575 132.019 110.575C132.019 110.575 169.369 75.9397 191.202 74.3871C193.885 74.1962 195.98 74.8404 198.018 75.7672C200.055 76.6939 199.142 120.553 199.142 120.553Z" fill="#BDC7C6" stroke="#71CA9B" stroke-miterlimit="10"/>
<path opacity="0.4" d="M155.751 138.551C140.841 141.256 132.019 110.579 132.019 110.579C132.019 110.579 169.373 75.9408 191.209 74.3881C193.893 74.1972 198.026 75.7683 198.026 75.7683C178.337 95.2628 162.139 122.211 155.751 138.551Z" fill="black"/>
<path opacity="0.5" d="M135.733 120.811L132.018 110.592C132.018 110.592 166.291 81.3222 181.58 76.6833C144.526 103.619 135.733 120.811 135.733 120.811Z" fill="#191919"/>
<path opacity="0.5" d="M222.807 104.543L233.459 101.764L263.585 126.848C263.585 126.848 239.486 109.195 222.807 104.543Z" fill="#191919"/>
<path opacity="0.4" d="M242.276 113.361L221.885 104.99L291.37 86.9237L242.276 113.361Z" fill="#191919"/>
<path d="M195.271 85.4629L195.152 121.997C195.152 121.997 185.923 124.26 177.692 127.491C170.348 130.374 154.748 139.493 154.748 139.493L190.282 86.962C190.282 86.962 193.038 84.2339 195.271 85.4629Z" fill="#323232"/>
<path d="M99.5925 271.098C95.2218 290.929 137.341 318.113 157.598 318.358C179.871 318.628 186.407 318.247 207.626 314.177C207.626 316.5 235.419 318.358 235.419 308.304C233.939 286.004 204.846 286.304 204.846 286.304L166.399 283.583C166.399 283.583 131.585 245.018 110.71 253.207" fill="#ECF9F8"/>
<path d="M99.5925 271.098C95.2218 290.929 137.341 318.113 157.598 318.358C179.871 318.628 186.407 318.247 207.626 314.177C207.626 316.5 235.419 318.358 235.419 308.304C233.939 286.004 204.846 286.304 204.846 286.304L166.399 283.583C166.399 283.583 131.585 245.018 110.71 253.207C100.283 257.298 99.5925 271.098 99.5925 271.098Z" stroke="#71CA9B" stroke-miterlimit="10"/>
<path opacity="0.2" d="M166.762 283.403C166.762 283.403 187.144 288.978 207.062 314.063C209.841 316.386 220.937 316.312 226.054 315.457C231.613 314.528 234.701 311.431 235.782 309.418C236.091 308.024 235.597 303.565 231.15 296.875C226.703 290.186 216.944 287.584 212.621 287.12L166.762 283.403Z" fill="#87D4FF"/>
<g filter="url(#filter8_i)">
<path d="M253.938 333.726C250.784 334.984 247.596 331.975 248.661 328.745L266.504 274.642C266.892 273.466 267.801 272.537 268.967 272.125L345.894 244.993C349.146 243.846 352.228 247.091 350.924 250.289L329.78 302.143C329.37 303.149 328.57 303.943 327.563 304.345L253.938 333.726Z" fill="#F9813A"/>
</g>
<path d="M249.136 328.902C248.203 331.729 250.993 334.362 253.752 333.261L327.378 303.88C328.259 303.529 328.959 302.833 329.317 301.953L350.462 250.099C351.603 247.3 348.906 244.461 346.061 245.465L269.133 272.598C268.113 272.957 267.317 273.77 266.978 274.8L249.136 328.902Z" stroke="black"/>
<g opacity="0.2" filter="url(#filter9_i)">
<path d="M253.266 338.171C250.111 339.614 246.741 336.615 247.798 333.304L266.506 274.684C266.889 273.483 267.815 272.534 269.005 272.123L340.923 247.266C344.172 246.143 347.229 249.384 345.929 252.571L324.854 304.236C324.47 305.178 323.742 305.938 322.818 306.36L253.266 338.171Z" fill="black"/>
</g>
<path d="M124.203 297.808C130.873 305.612 147.364 316.39 147.364 316.39H145.974C140.416 314.686 126.148 308.585 113.549 297.808C100.949 287.03 98.7253 279.222 99.1885 271.325C99.6517 263.428 103.821 254.601 111.232 252.743C103.357 270.392 117.532 290.004 124.203 297.808Z" fill="#ECF9F8"/>
<path opacity="0.2" d="M119.511 251.785C128.407 252.25 158.885 275.972 164.907 284.799C173.245 288.98 180.193 282.91 207.06 314.499C182.651 320.351 177.877 320.719 152.863 318.68C143.135 317.286 129.83 309.369 123.446 306.168C118.814 303.845 104.454 288.515 102.138 284.799C99.8217 281.082 98.3582 276.438 99.1291 270.367C99.9572 263.847 102.601 258.782 105.844 255.53C109.086 252.279 113.24 251.456 119.511 251.785Z" fill="black"/>
<path opacity="0.4" d="M124.202 297.808C130.873 305.612 147.364 316.39 147.364 316.39H145.974C140.415 314.686 125.165 307.623 112.566 296.846C101.626 287.488 95.4542 277.265 100.985 263.398C102.838 258.753 104.691 255.966 110.25 252.714C106.544 268.508 114.338 286.266 124.202 297.808Z" fill="black"/>
<path opacity="0.6" d="M283.494 193.281C287.058 176.412 285.346 160.298 283.493 150.078C291.368 169.125 290.228 181.112 286.272 197.927C282.277 214.908 276.522 223.513 267.28 238.342C260.332 249.491 241.34 260.64 241.34 260.64C257.09 247.169 264.038 236.019 264.038 236.019C264.038 236.019 279.72 211.139 283.494 193.281Z" fill="#87D4FF"/>
</g>
<defs>
<filter id="filter0_i" x="0" y="0" width="469.708" height="380.44" filterUnits="userSpaceOnUse" color-interpolation-filters="sRGB">
<feFlood flood-opacity="0" result="BackgroundImageFix"/>
<feBlend mode="normal" in="SourceGraphic" in2="BackgroundImageFix" result="shape"/>
<feColorMatrix in="SourceAlpha" type="matrix" values="0 0 0 0 0 0 0 0 0 0 0 0 0 0 0 0 0 0 127 0" result="hardAlpha"/>
<feOffset dy="16"/>
<feGaussianBlur stdDeviation="8"/>
<feComposite in2="hardAlpha" operator="arithmetic" k2="-1" k3="1"/>
<feColorMatrix type="matrix" values="0 0 0 0 0 0 0 0 0 0 0 0 0 0 0 0 0 0 0.25 0"/>
<feBlend mode="normal" in2="shape" result="effect1_innerShadow"/>
</filter>
<filter id="filter1_i" x="204.59" y="282.077" width="118.823" height="54.4397" filterUnits="userSpaceOnUse" color-interpolation-filters="sRGB">
<feFlood flood-opacity="0" result="BackgroundImageFix"/>
<feBlend mode="normal" in="SourceGraphic" in2="BackgroundImageFix" result="shape"/>
<feColorMatrix in="SourceAlpha" type="matrix" values="0 0 0 0 0 0 0 0 0 0 0 0 0 0 0 0 0 0 127 0" result="hardAlpha"/>
<feOffset dy="-4"/>
<feComposite in2="hardAlpha" operator="arithmetic" k2="-1" k3="1"/>
<feColorMatrix type="matrix" values="0 0 0 0 0 0 0 0 0 0 0 0 0 0 0 0 0 0 0.25 0"/>
<feBlend mode="normal" in2="shape" result="effect1_innerShadow"/>
</filter>
<filter id="filter2_i" x="310.629" y="231.688" width="122.299" height="41.3763" filterUnits="userSpaceOnUse" color-interpolation-filters="sRGB">
<feFlood flood-opacity="0" result="BackgroundImageFix"/>
<feBlend mode="normal" in="SourceGraphic" in2="BackgroundImageFix" result="shape"/>
<feColorMatrix in="SourceAlpha" type="matrix" values="0 0 0 0 0 0 0 0 0 0 0 0 0 0 0 0 0 0 127 0" result="hardAlpha"/>
<feOffset dx="-2" dy="-6"/>
<feComposite in2="hardAlpha" operator="arithmetic" k2="-1" k3="1"/>
<feColorMatrix type="matrix" values="0 0 0 0 1 0 0 0 0 1 0 0 0 0 1 0 0 0 0.25 0"/>
<feBlend mode="normal" in2="shape" result="effect1_innerShadow"/>
</filter>
<filter id="filter3_i" x="351.645" y="189.175" width="45.4412" height="67.4212" filterUnits="userSpaceOnUse" color-interpolation-filters="sRGB">
<feFlood flood-opacity="0" result="BackgroundImageFix"/>
<feBlend mode="normal" in="SourceGraphic" in2="BackgroundImageFix" result="shape"/>
<feColorMatrix in="SourceAlpha" type="matrix" values="0 0 0 0 0 0 0 0 0 0 0 0 0 0 0 0 0 0 127 0" result="hardAlpha"/>
<feOffset dx="-5" dy="4"/>
<feComposite in2="hardAlpha" operator="arithmetic" k2="-1" k3="1"/>
<feColorMatrix type="matrix" values="0 0 0 0 1 0 0 0 0 1 0 0 0 0 1 0 0 0 0.25 0"/>
<feBlend mode="normal" in2="shape" result="effect1_innerShadow"/>
</filter>
<filter id="filter4_i" x="296.465" y="112.45" width="154.717" height="146.459" filterUnits="userSpaceOnUse" color-interpolation-filters="sRGB">
<feFlood flood-opacity="0" result="BackgroundImageFix"/>
<feBlend mode="normal" in="SourceGraphic" in2="BackgroundImageFix" result="shape"/>
<feColorMatrix in="SourceAlpha" type="matrix" values="0 0 0 0 0 0 0 0 0 0 0 0 0 0 0 0 0 0 127 0" result="hardAlpha"/>
<feOffset dx="-4" dy="-2"/>
<feComposite in2="hardAlpha" operator="arithmetic" k2="-1" k3="1"/>
<feColorMatrix type="matrix" values="0 0 0 0 0.996078 0 0 0 0 0.996078 0 0 0 0 0.996078 0 0 0 0.25 0"/>
<feBlend mode="normal" in2="shape" result="effect1_innerShadow"/>
</filter>
<filter id="filter5_i" x="303.113" y="126.711" width="136.168" height="120.73" filterUnits="userSpaceOnUse" color-interpolation-filters="sRGB">
<feFlood flood-opacity="0" result="BackgroundImageFix"/>
<feBlend mode="normal" in="SourceGraphic" in2="BackgroundImageFix" result="shape"/>
<feColorMatrix in="SourceAlpha" type="matrix" values="0 0 0 0 0 0 0 0 0 0 0 0 0 0 0 0 0 0 127 0" result="hardAlpha"/>
<feOffset dx="4" dy="-2"/>
<feComposite in2="hardAlpha" operator="arithmetic" k2="-1" k3="1"/>
<feColorMatrix type="matrix" values="0 0 0 0 0.150081 0 0 0 0 0.146465 0 0 0 0 0.191667 0 0 0 0.5 0"/>
<feBlend mode="normal" in2="shape" result="effect1_innerShadow"/>
</filter>
<filter id="filter6_f" x="188.559" y="180.351" width="33.5631" height="42.3613" filterUnits="userSpaceOnUse" color-interpolation-filters="sRGB">
<feFlood flood-opacity="0" result="BackgroundImageFix"/>
<feBlend mode="normal" in="SourceGraphic" in2="BackgroundImageFix" result="shape"/>
<feGaussianBlur stdDeviation="1" result="effect1_foregroundBlur"/>
</filter>
<filter id="filter7_f" x="250.34" y="183.913" width="27.5197" height="40.2447" filterUnits="userSpaceOnUse" color-interpolation-filters="sRGB">
<feFlood flood-opacity="0" result="BackgroundImageFix"/>
<feBlend mode="normal" in="SourceGraphic" in2="BackgroundImageFix" result="shape"/>
<feGaussianBlur stdDeviation="1" result="effect1_foregroundBlur"/>
</filter>
<filter id="filter8_i" x="248.453" y="244.757" width="102.779" height="89.2619" filterUnits="userSpaceOnUse" color-interpolation-filters="sRGB">
<feFlood flood-opacity="0" result="BackgroundImageFix"/>
<feBlend mode="normal" in="SourceGraphic" in2="BackgroundImageFix" result="shape"/>
<feColorMatrix in="SourceAlpha" type="matrix" values="0 0 0 0 0 0 0 0 0 0 0 0 0 0 0 0 0 0 127 0" result="hardAlpha"/>
<feOffset dx="4" dy="4"/>
<feComposite in2="hardAlpha" operator="arithmetic" k2="-1" k3="1"/>
<feColorMatrix type="matrix" values="0 0 0 0 0 0 0 0 0 0 0 0 0 0 0 0 0 0 0.25 0"/>
<feBlend mode="normal" in2="shape" result="effect1_innerShadow"/>
</filter>
<filter id="filter9_i" x="247.602" y="247.039" width="98.6361" height="91.5036" filterUnits="userSpaceOnUse" color-interpolation-filters="sRGB">
<feFlood flood-opacity="0" result="BackgroundImageFix"/>
<feBlend mode="normal" in="SourceGraphic" in2="BackgroundImageFix" result="shape"/>
<feColorMatrix in="SourceAlpha" type="matrix" values="0 0 0 0 0 0 0 0 0 0 0 0 0 0 0 0 0 0 127 0" result="hardAlpha"/>
<feOffset dx="4" dy="4"/>
<feComposite in2="hardAlpha" operator="arithmetic" k2="-1" k3="1"/>
<feColorMatrix type="matrix" values="0 0 0 0 0 0 0 0 0 0 0 0 0 0 0 0 0 0 0.25 0"/>
<feBlend mode="normal" in2="shape" result="effect1_innerShadow"/>
</filter>
<linearGradient id="paint0_linear" x1="363.168" y1="260.64" x2="317.771" y2="398.069" gradientUnits="userSpaceOnUse">
<stop stop-color="#87D4FF"/>
<stop offset="0.725488" stop-color="#87D4FF" stop-opacity="0"/>
</linearGradient>
</defs>
</svg>
